<svg xmlns="http://www.w3.org/2000/svg" viewBox="0 0 1000 480" width="1000" height="480" font-family="'Manrope','Helvetica Neue',sans-serif">
  <polyline points="130,355 368,287 606,219 844,151" fill="none" stroke="#D8896B" stroke-width="4" stroke-dasharray="3 10" stroke-linecap="round"/>

  <!-- Station 1 — done -->
  <rect x="40" y="300" width="180" height="120" rx="18" fill="#F7F6EF" stroke="#B85838" stroke-width="2.5"/>
  <circle cx="70" cy="330" r="20" fill="#B85838"/>
  <path d="M61 330 l6 6 l12 -13" fill="none" stroke="#FFFFFF" stroke-width="3.5" stroke-linecap="round" stroke-linejoin="round"/>
  <text x="58" y="378" font-size="22" font-weight="700" fill="#54514A">AI</text>
  <text x="58" y="402" font-size="22" font-weight="700" fill="#54514A">Fundamental</text>

  <!-- Station 2 — done -->
  <rect x="278" y="232" width="180" height="120" rx="18" fill="#F7F6EF" stroke="#B85838" stroke-width="2.5"/>
  <circle cx="308" cy="262" r="20" fill="#B85838"/>
  <path d="M299 262 l6 6 l12 -13" fill="none" stroke="#FFFFFF" stroke-width="3.5" stroke-linecap="round" stroke-linejoin="round"/>
  <text x="296" y="310" font-size="22" font-weight="700" fill="#54514A">Prompt</text>
  <text x="296" y="334" font-size="22" font-weight="700" fill="#54514A">Engineering</text>

  <!-- Station 3 — done -->
  <rect x="516" y="164" width="180" height="120" rx="18" fill="#F7F6EF" stroke="#B85838" stroke-width="2.5"/>
  <circle cx="546" cy="194" r="20" fill="#B85838"/>
  <path d="M537 194 l6 6 l12 -13" fill="none" stroke="#FFFFFF" stroke-width="3.5" stroke-linecap="round" stroke-linejoin="round"/>
  <text x="534" y="242" font-size="22" font-weight="700" fill="#262620">NotebookLM</text>
  <text x="534" y="266" font-size="22" font-weight="700" fill="#262620">Fundamental</text>

  <!-- Station 4 — CURRENT (clay fill) -->
  <rect x="754" y="96" width="180" height="120" rx="18" fill="#B85838" stroke="#262620" stroke-width="2.5"/>
  <circle cx="784" cy="126" r="20" fill="#FFFFFF"/>
  <text x="784" y="134" text-anchor="middle" font-size="24" font-weight="700" fill="#B85838">4</text>
  <text x="772" y="174" font-size="22" font-weight="700" fill="#FFFFFF">Workshop /</text>
  <text x="772" y="198" font-size="22" font-weight="700" fill="#FFFFFF">Implementasi</text>

  <text x="40" y="455" font-size="17" fill="#54514A">Anda di sini — Modul 4: menerapkan AI dalam pekerjaan nyata.</text>
</svg>
